# xmcd
#
# Track frame offsets:
#	150
#	16881
#	30351
#	56053
#	71912
#	92653
#	115400
#	131523
#	160232
#	178267
#	195044
#
# Disc length: 2826
#
# Revision: 1
# Processed by: cddbd v1.5.1PL0 Copyright (c) Steve Scherf et al.
# Submitted via: dBpowerAMP V4.0
# Normalized: r0:TRMNUM
#
DISCID=8d0b080b
DTITLE=Starczan Bros - The Nice Way From The Roots to the New Century
DYEAR=1900
DGENRE=Bluesrock
TTITLE0=I got a call
TTITLE1=Just turn that dial
TTITLE2=Walk alone
TTITLE3=When I was blind
TTITLE4=Change of course
TTITLE5=It's what he wants
TTITLE6=Not just a man
TTITLE7=Take the lead
TTITLE8=French stories
TTITLE9=Song number 18
TTITLE10=An inch of earth
EXTD=
EXTT0=
EXTT1=
EXTT2=
EXTT3=
EXTT4=
EXTT5=
EXTT6=
EXTT7=
EXTT8=
EXTT9=
EXTT10=
PLAYORDER=
